<?xml version="1.0" encoding="utf-8"?>
<!-- Generator: Adobe Illustrator 21.0.2, SVG Export Plug-In . SVG Version: 6.00 Build 0)  -->
<svg version="1.1" id="Layer_1" xmlns="http://www.w3.org/2000/svg" xmlns:xlink="http://www.w3.org/1999/xlink" x="0px" y="0px"
	 viewBox="0 0 512 512" style="enable-background:new 0 0 512 512;" xml:space="preserve">
<style type="text/css">
	.st0{fill:#FFFFFF;}
</style>
<path class="st0" d="M512,191.4c0,92.2-105,167.1-234,167.1h-22h-22c-110.9,0-201.2,62.7-201.2,139.8c0,7.6-7.3,13.7-16.4,13.7
	S0,505.9,0,498.3c0-92.2,105-167.1,234-167.1h22h22c110.9,0,201.2-62.7,201.2-139.8c0-7.6,7.3-13.7,16.4-13.7
	C504.7,177.8,512,183.9,512,191.4z M16.4,334.2c9,0,16.4-6.1,16.4-13.7c0-77.1,90.3-139.8,201.2-139.8h22h22c129,0,234-75,234-167.1
	C512,6.1,504.7,0,495.6,0s-16.4,6.1-16.4,13.7c0,77.1-90.3,139.8-201.2,139.8h-22h-22c-129,0-234,75-234,167.1
	C0,328.1,7.3,334.2,16.4,334.2z M239.6,214V298c0,7.6,7.3,13.7,16.4,13.7c9,0,16.4-6.1,16.4-13.7V214c0-7.6-7.3-13.7-16.4-13.7
	C247,200.3,239.6,206.4,239.6,214z M396.8,192.3v36.1c0,7.6,7.3,13.7,16.4,13.7s16.4-6.1,16.4-13.7v-36.1c0-7.6-7.3-13.7-16.4-13.7
	S396.8,184.7,396.8,192.3z M318.2,214.4v61.9c0,7.6,7.3,13.7,16.4,13.7c9,0,16.4-6.1,16.4-13.7v-61.9c0-7.6-7.3-13.7-16.4-13.7
	C325.5,200.7,318.2,206.8,318.2,214.4z M82.5,283.6v36.1c0,7.6,7.3,13.7,16.4,13.7s16.4-6.1,16.4-13.7v-36.1
	c0-7.6-7.3-13.7-16.4-13.7S82.5,276.1,82.5,283.6z M161,235.7v61.9c0,7.6,7.3,13.7,16.4,13.7s16.4-6.1,16.4-13.7v-61.9
	c0-7.6-7.3-13.7-16.4-13.7S161,228.1,161,235.7z M16.4,386.8c9,0,16.4-6.1,16.4-13.7v-7.9c0-7.6-7.3-13.7-16.4-13.7S0,357.7,0,365.2
	v7.9C0,380.6,7.3,386.8,16.4,386.8z M477.2,135.5v7.9c0,7.6,7.3,13.7,16.4,13.7c9,0,16.4-6.1,16.4-13.7v-7.9
	c0-7.6-7.3-13.7-16.4-13.7C484.6,121.8,477.2,127.9,477.2,135.5z"/>
</svg>
