<?xml version="1.0" encoding="utf-8"?>
<!-- Generator: Adobe Illustrator 21.0.2, SVG Export Plug-In . SVG Version: 6.00 Build 0)  -->
<svg version="1.1" id="Layer_1" xmlns="http://www.w3.org/2000/svg" xmlns:xlink="http://www.w3.org/1999/xlink" x="0px" y="0px"
	 viewBox="0 0 512 512" style="enable-background:new 0 0 512 512;" xml:space="preserve">
<path d="M504.6,31.8L480.2,7.4c-9.9-9.9-26.1-9.9-36,0l-26.7,26.7H0V512h477.7V94.6l2.6-2.6l0,0l24.2-24.2
	C514.5,57.9,514.5,41.7,504.6,31.8z M171,313.6l27.5,27.5l-37.8,10.3L171,313.6z M444.1,104.1l-36.2-36.2L420,55.8L456.2,92
	L444.1,104.1z M432.1,116.2L214.9,333.4l-36.2-36.2L395.9,80L432.1,116.2z M460.7,111.7v383.2H17.1V51.2h383.4l-239.9,240l-1.6,1.6
	l-18.1,66.4l-10.5,10.5c-3.3,3.3-3.3,8.7,0,12.1c1.7,1.7,3.8,2.5,6,2.5s4.4-0.8,6-2.5l10.5-10.5l66.4-18.1l224.8-224.9l0,0l3.8-3.8
	L460.7,111.7z M492.5,55.7L468.3,80l-36.2-36.2l24.2-24.2c3.3-3.3,8.6-3.3,11.9,0l24.3,24.3C495.8,47.1,495.8,52.4,492.5,55.7z"/>
</svg>
