<?xml version="1.0" encoding="utf-8"?>
<!-- Generator: Adobe Illustrator 21.0.2, SVG Export Plug-In . SVG Version: 6.00 Build 0)  -->
<svg version="1.1" id="Capa_1" xmlns="http://www.w3.org/2000/svg" xmlns:xlink="http://www.w3.org/1999/xlink" x="0px" y="0px"
	 viewBox="0 0 478.2 478.2" style="enable-background:new 0 0 478.2 478.2;" xml:space="preserve">
<g>
	<path d="M20.8,152.7c-9.8,12.5-14.5,25.9-14,39.7c0.6,15.2,7.4,27.1,12.9,34.4c-6.5,16.2-9.1,41.7,12.6,61.5
		c15.9,14.5,42.9,21.1,80.3,19.3c26.3-1.2,48.3-6,49.2-6.2l0.1,0c5-0.9,10.3-2,15.7-3.2c0.4,6.4-0.7,22.3-12.6,58.1
		c-14.1,42.6-13.3,75.2,2.4,97c16.6,22.9,43.1,24.8,50.9,24.8c7.5,0,14.4-3.1,19.3-8.8c11.1-12.9,9.9-36.7,8.5-47.7
		c13.3-35.4,50.4-122.1,81.8-146.2c0.6-0.4,1.1-0.9,1.6-1.4c9.2-9.7,15.4-20.2,19.7-29.4c5.9,3.2,12.6,5,19.8,5l61,0.1
		c23,0,41.6-18.6,41.7-41.5l0.3-162.5c0-23-18.6-41.6-41.5-41.7l-61-0.1c-8.9,0-17.2,2.8-24,7.6l-23.5-2.8
		c-3.6-0.5-67.6-8.7-133.3-7.5c-11.9-0.9-23.1-1.4-33.5-1.5c-17.9,0-33.5,1.3-46.5,4.1C77.9,10.4,57,23.4,46.4,42.5
		c-8.1,14.6-8.2,29.1-6.9,38.3c-19.9,18-23.5,37.9-22.8,51.9C17.1,140.7,18.9,147.6,20.8,152.7z M430.3,31.2
		c8.1,0,14.6,6.6,14.6,14.6l-0.3,162.6c0,8.1-6.6,14.6-14.6,14.6l-61-0.1c-8.1,0-14.6-6.6-14.6-14.6l0.3-162.5
		c0-8.1,6.6-14.6,14.6-14.6L430.3,31.2L430.3,31.2z M46.4,164.5c4.2-4.4,5-11.1,1.8-16.3c0-0.1-4.1-7.1-4.6-16.7
		c-0.7-13.1,5.6-24.7,18.9-34.6c4.7-3.6,6.6-9.8,4.6-15.4c0-0.1-4.3-13.3,2.7-25.8c6.7-12,21.6-20.6,44.2-25.3
		c18.1-3.9,42.7-4.5,72.9-2.1c0.4,0,0.9,0,1.4,0c64.3-1.3,129.3,7.2,130,7.3l0.1,0l10.1,1.2c-0.6,2.8-0.9,5.8-0.9,8.8l-0.3,162.6
		c0,4.3,0.7,8.5,1.9,12.4c-1.8,6.7-6.8,21.6-18.7,34.3c-45,35.5-89.1,155.5-91,160.7c-0.8,2.1-1,4.4-0.6,6.7
		c1.7,11.2,1.1,24.9-1.4,29c-5.3-0.1-19.6-1.6-28.2-13.5c-10.2-14.1-9.7-39.3,1.3-72.7c16.9-50.9,18.3-77.7,5.1-89.5
		c-6.6-5.9-15.4-6.2-21.8-3.9c-6.1,1.4-11.9,2.6-17.4,3.5c-0.4,0.1-0.9,0.2-1.3,0.3c-30.7,6.6-85.7,10.6-104.8-6.8
		c-16.2-14.8-4.6-34.4-3.3-36.5c3.7-5.6,2.6-12.9-2.4-17.4c-0.1-0.1-10.6-10-11.1-23.3C33.4,182.5,37.6,173.4,46.4,164.5z"/>
</g>
</svg>
